# xmcd
#
# Track frame offsets:
#	150
#	12385
#	27260
#	41195
#	57362
#	70485
#	80245
#	97797
#	112342
#	126680
#
# Disc length: 1841 seconds
#
# Revision: 1
# Processed by: cddbd v1.4b42PL1 Copyright (c) Steve Scherf et al.
# Submitted via: audiograbber 1.80
#
DISCID=96072f0a
DTITLE=Jeff and Sheri Easter - Ever Faithful To You 
DYEAR=1900
DGENRE=
TTITLE0=Words That Good
TTITLE1=Take This Road
TTITLE2=It's Real
TTITLE3=You're The Inspiration
TTITLE4=When You Are Old
TTITLE5=Everyday Love
TTITLE6=Ever Faithful To You
TTITLE7=It Takes Love To Know Love
TTITLE8=To Me
TTITLE9=I've Got A Love
EXTD=
EXTT0=
EXTT1=
EXTT2=
EXTT3=
EXTT4=
EXTT5=
EXTT6=
EXTT7=
EXTT8=
EXTT9=
PLAYORDER=
